<svg xmlns="http://www.w3.org/2000/svg" viewBox="0 0 720 960" role="img" aria-labelledby="title desc">
  <title id="title">Cloud Runner original adventure comic cover</title>
  <desc id="desc">A polished pastel adventure manga cover showing an original runner leaping across clouds above a compact city.</desc>
  <defs>
    <linearGradient id="cloudSky" x1="0" x2="0" y1="0" y2="1">
      <stop offset="0" stop-color="#00B1D2" />
      <stop offset=".52" stop-color="#8E9AF1" />
      <stop offset="1" stop-color="#F3E5AB" />
    </linearGradient>
    <pattern id="speedTone" width="18" height="18" patternUnits="userSpaceOnUse">
      <path d="M0 0h18v18H0z" fill="none" />
      <path d="M0 18 18 0" stroke="#111111" stroke-width="2" opacity=".14" />
    </pattern>
  </defs>
  <rect width="720" height="960" rx="42" fill="url(#cloudSky)" />
  <rect x="34" y="34" width="652" height="892" rx="32" fill="none" stroke="#111111" stroke-width="10" />
  <rect x="34" y="34" width="652" height="892" rx="32" fill="url(#speedTone)" opacity=".6" />

  <g aria-label="cloud field">
    <path d="M54 342c28-64 78-96 150-96 22-65 76-100 164-105 112 0 180 56 205 154 62 6 106 42 132 108 32 84-32 160-136 160H154C74 563 26 496 44 417c7-30 10-55 10-75Z" fill="#FFFFFF" stroke="#111111" stroke-width="11" stroke-linejoin="round" />
    <path d="M80 574c92-34 175-28 249 19 64 40 152 37 264-9 43-18 78-25 104-19v244H0V615c24-6 51-20 80-41Z" fill="#F3E5AB" stroke="#111111" stroke-width="9" />
    <path d="M70 654h112v204H70zM224 604h112v254H224zM376 678h98v180h-98zM516 598h126v260H516z" fill="#FFFFFF" stroke="#111111" stroke-width="8" />
    <path d="M92 700h58M92 742h58M246 648h56M246 690h56M398 716h44M540 646h72M540 688h72M540 730h72" stroke="#8E9AF1" stroke-width="8" stroke-linecap="round" />
  </g>

  <g aria-label="runner character">
    <path d="M166 440c82-85 171-132 267-140" fill="none" stroke="#111111" stroke-width="15" stroke-linecap="round" />
    <path d="M184 412c54-13 102-11 145 6" fill="none" stroke="#FFFFFF" stroke-width="9" stroke-linecap="round" opacity=".85" />
    <circle cx="464" cy="260" r="42" fill="#FFDAB9" stroke="#111111" stroke-width="10" />
    <path d="M420 242c20-56 64-80 132-72 33 24 43 58 30 102-50-24-104-34-162-30Z" fill="#15151E" stroke="#111111" stroke-width="9" />
    <path d="M444 264h30M516 264h26" stroke="#111111" stroke-width="7" stroke-linecap="round" />
    <circle cx="466" cy="292" r="8" fill="#111111" />
    <circle cx="528" cy="292" r="8" fill="#111111" />
    <path d="M480 320c18 12 38 12 58-2" fill="none" stroke="#111111" stroke-width="7" stroke-linecap="round" />
    <path d="M420 334c56-36 112-36 166 0l-36 138c-40 26-88 26-144 0Z" fill="#FF6F61" stroke="#111111" stroke-width="10" stroke-linejoin="round" />
    <path d="M406 372 312 470M556 370l90 74" stroke="#111111" stroke-width="14" stroke-linecap="round" />
    <path d="M394 470 302 560M508 476 602 602" stroke="#111111" stroke-width="16" stroke-linecap="round" />
    <path d="M286 560h90M578 606h92" stroke="#111111" stroke-width="18" stroke-linecap="round" />
    <path d="M562 318c54 18 92 50 115 96-58-20-108-20-150 0Z" fill="#8E9AF1" stroke="#111111" stroke-width="8" stroke-linejoin="round" />
  </g>

  <g aria-label="cover editorial typography">
    <rect x="62" y="62" width="318" height="94" fill="#111111" />
    <text x="82" y="122" fill="#FFFFFF" font-family="Arial, sans-serif" font-size="50" font-weight="900">ONE-SHOT</text>
    <path d="M446 66h160c25 0 46 21 46 46s-21 46-46 46H446z" fill="#FFFFFF" stroke="#111111" stroke-width="8" />
    <text x="474" y="122" fill="#111111" font-family="Arial, sans-serif" font-size="27" font-weight="900">7 MIN</text>
    <rect x="58" y="772" width="604" height="118" fill="#FFFFFF" stroke="#111111" stroke-width="10" />
    <text x="82" y="840" fill="#111111" font-family="Arial, sans-serif" font-size="58" font-weight="900">CLOUD RUNNER</text>
    <text x="86" y="874" fill="#111111" font-family="Arial, sans-serif" font-size="24" font-weight="900">LOST UMBRELLA DELIVERY</text>
  </g>
</svg>
